<svg xmlns="http://www.w3.org/2000/svg" viewBox="0 0 24 24"><path fill="#303C42" d="M22.8535156,22.1464844l-7.0090942-7.0095825C17.180481,13.6348877,18,11.6636963,18,9.5 C18,4.8129883,14.1865234,1,9.5,1S1,4.8129883,1,9.5S4.8134766,18,9.5,18c2.1638184,0,4.1353149-0.8196411,5.6374512-2.1560059 l7.0090332,7.0095215C22.2441406,22.9511719,22.3720703,23,22.5,23s0.2558594-0.0488281,0.3535156-0.1464844 C23.0488281,22.6582031,23.0488281,22.3417969,22.8535156,22.1464844z"></path><circle cx="9.5" cy="9.5" r="7.5" fill="#BBDEFB"></circle><path d="M3,10.5C3,6.3642578,6.3642578,3,10.5,3c1.8137817,0,3.4788208,0.6474609,4.7770996,1.7229004 C13.9003296,3.060791,11.8219604,2,9.5,2C5.3642578,2,2,5.3642578,2,9.5c0,2.3219604,1.060791,4.4003296,2.7229004,5.7770996 C3.6474609,13.9788208,3,12.3137817,3,10.5z" opacity=".1"></path><circle cx="11.5" cy="12.5" r="2.5" fill="#FFF" opacity=".4"></circle><path fill="#303C42" d="M7.5,12c-0.1279297,0-0.2558594-0.0488281-0.3535156-0.1464844 c-0.1953125-0.1953125-0.1953125-0.5117188,0-0.7070312l1.78125-1.7817383l-0.9018555-2.706543 C7.9467773,6.421875,8.0537109,6.1640625,8.2763672,6.0527344l3.6123047-1.8061523l-0.7705078-2.3120117 c-0.0874023-0.262207,0.0541992-0.5454102,0.315918-0.6323242c0.2646484-0.0878906,0.5454102,0.0541992,0.6323242,0.315918 l0.9077148,2.7236328c0.0791016,0.2363281-0.027832,0.4941406-0.2504883,0.6054688L9.1113281,6.753418l0.862793,2.5883789 c0.0600586,0.1796875,0.0131836,0.3779297-0.1206055,0.5117188l-2,2C7.7558594,11.9511719,7.6279297,12,7.5,12z"></path><linearGradient id="14Nmxo9nVhpkvOBhAQRkXa" x1="1.797" x2="25.611" y1="5.908" y2="17.013" gradientUnits="userSpaceOnUse"><stop offset="0" stop-color="#fff" stop-opacity=".2"></stop><stop offset="1" stop-color="#fff" stop-opacity="0"></stop></linearGradient><path fill="url(#14Nmxo9nVhpkvOBhAQRkXa)" d="M22.8535156,22.1464844l-7.0090942-7.0095825C17.180481,13.6348877,18,11.6636963,18,9.5 C18,4.8129883,14.1865234,1,9.5,1S1,4.8129883,1,9.5S4.8134766,18,9.5,18c2.1638184,0,4.1353149-0.8196411,5.6374512-2.1560059 l7.0090332,7.0095215C22.2441406,22.9511719,22.3720703,23,22.5,23s0.2558594-0.0488281,0.3535156-0.1464844 C23.0488281,22.6582031,23.0488281,22.3417969,22.8535156,22.1464844z"></path></svg>