<svg xmlns="http://www.w3.org/2000/svg" data-name="Layer 1" viewBox="0 0 512 512"><defs><linearGradient id="UT4kwO2TixEst0ZrqRCQra" x1="255.989" x2="255.989" y1="494" y2="68.117" gradientTransform="matrix(1 0 0 -1 0 514)" gradientUnits="userSpaceOnUse"><stop offset="0" stop-color="#00efd1"></stop><stop offset="1" stop-color="#00acea"></stop></linearGradient></defs><path fill="url(#UT4kwO2TixEst0ZrqRCQra)" d="M353.4,287.561a176.169,176.169,0,0,0,23.423-87.99c0-97.737-79.515-177.251-177.251-177.251S22.32,101.834,22.32,199.571s79.515,177.251,177.251,177.251A176.163,176.163,0,0,0,287.56,353.4L410.207,476.046a46.555,46.555,0,0,0,65.839-65.839ZM42.32,199.571c0-86.709,70.542-157.251,157.251-157.251s157.251,70.542,157.251,157.251S286.28,356.823,199.571,356.823,42.32,286.28,42.32,199.571Zm299.9,105.091,41.962,41.962-37.554,37.554-41.961-41.961A178.8,178.8,0,0,0,342.216,304.662ZM461.9,461.9a26.578,26.578,0,0,1-37.547,0L360.767,398.32l37.554-37.554L461.9,424.35A26.582,26.582,0,0,1,461.9,461.9Z"></path></svg>